# xmcd CD database file
#
# Track frame offsets:
#	150
#	13675
#	27292
#	39672
#	52908
#	65282
#	77684
#	91329
#	102978
#	115621
#	128098
#	140311
#	153081
#	164943
#	178678
#	193324
#	203497
#	216039
#	227969
#	241174
#	253797
#	267457
#	280677
#	294707
#	308770
#
# Disc length: 4279 seconds
#
# Revision: 3
# Processed by: cddbd v1.5.2PL0 Copyright (c) Steve Scherf et al.
# Submitted via: CDex 1.70beta2
#
DISCID=6110b519
DTITLE=50 Sublimes Chanteurs de Jazz 1940-1953 - 50 Sublimes Chanteurs de Jazz 1940-1953 [CD1)
DYEAR=2003
DGENRE=Jazz
TTITLE0=Pha Terrell and Andy Kirk Orch - Love Is The Thing
TTITLE1=Cab Calloway - Boog It
TTITLE2=Jimmy Rushing and Count Basie Orch - I Want A Little Girl
TTITLE3=Hot Lips Page - Just Another Woman
TTITLE4=Fats Waller - Twenty-Four Robbers
TTITLE5=Louis Jordan - Is You Is Or Is You Ain't My Baby
TTITLE6=Jack Teagarden - Stars Fell On Alabama
TTITLE7=Louis Prima - The Very Thought Of You
TTITLE8=Cecil Gant - I Wonder
TTITLE9=Big Joe Turner - Rebecca
TTITLE10=Billy Eckstine - If That's The Way You Feel
TTITLE11=James 'Trummie' Young' s All Stars - Ooh Ooh My My Ooh Ooh
TTITLE12=Nat King Cole Trio - What Can I Say After I Say I'm Sorry
TTITLE13=Herb Jeffries - I'm Just A Lucky So And So
TTITLE14=Charles Brown and Johnny Moore's Three Blazers - Driftin' Blues
TTITLE15=Ernie Andrews - Green Gin
TTITLE16=Bing Crosby and Lionel Hampton - On The Sunny Side Of The Street
TTITLE17=Buddy Rich - It's About Time
TTITLE18=Leo Watson - Tight And Gray
TTITLE19=Eddie Vinson - Old Maid Boogie
TTITLE20=Billy Daniels and Mercer Ellington Orch - I Owe This Dream To You
TTITLE21=Baby Gonzales, Bab's Three Bips and a Bop - Oop-Pop-A-Da
TTITLE22=Jesse Watson - Have I Got You
TTITLE23=Frank Sinatra - One For My Baby
TTITLE24=Mel Tormé - My Baby Just Cares For Me
EXTD=YEAR: 2003
EXTT0=
EXTT1=
EXTT2=
EXTT3=
EXTT4=
EXTT5=
EXTT6=
EXTT7=
EXTT8=
EXTT9=
EXTT10=
EXTT11=
EXTT12=
EXTT13=
EXTT14=
EXTT15=
EXTT16=
EXTT17=
EXTT18=
EXTT19=
EXTT20=
EXTT21=
EXTT22=
EXTT23=
EXTT24=
PLAYORDER=
